# xmcd
#
# Track frame offsets: 
#        150
#        17316
#        39380
#        55760
#        73892
#        93678
#        114485
#        125092
#
# Disc length: 1935 seconds
#
# Revision: 0
# Processed by: cddbd v1.5.2PL0 Copyright (c) Steve Scherf et al.
# Submitted via: ExactAudioCopy v0.99pb5
#
DISCID=69078d08
DTITLE=Plain Dirty Blues - Five Dollar Cover
DYEAR=2010
DGENRE=Blues
TTITLE0=Unfit
TTITLE1=Stormy Monday
TTITLE2=I'm Going Down
TTITLE3=Gallow's Hill
TTITLE4=Chunky
TTITLE5=Got My Mojo Working
TTITLE6=I Ain't Got
TTITLE7=She Suits Me To A Tee
EXTD=
EXTT0=Doug Burton\n
EXTT1=T-Bone Walker\n\n
EXTT2=
EXTT3=
EXTT4=
EXTT5=
EXTT6=
EXTT7=
PLAYORDER=
